<?xml version="1.0" encoding="iso-8859-1"?>
<!-- Generator: Adobe Illustrator 19.0.0, SVG Export Plug-In . SVG Version: 6.00 Build 0)  -->
<svg version="1.1" id="Layer_1" xmlns="http://www.w3.org/2000/svg" xmlns:xlink="http://www.w3.org/1999/xlink" x="0px" y="0px"
	 viewBox="0 0 512 512" style="enable-background:new 0 0 512 512;" xml:space="preserve">
<g transform="translate(1 1)">
	<path d="m502.47 255c0 136.53-110.93 247.47-247.47 247.47s-247.47-110.93-247.47-247.47 110.93-247.47 247.47-247.47 247.47 110.93 247.47 247.47" fill="#ccc"/>
	<path d="m476.87 255c0 136.53-98.987 247.47-221.87 247.47s-221.87-110.93-221.87-247.47 98.987-247.47 221.87-247.47 221.87 110.93 221.87 247.47" fill="#E2E3E5"/>
	<path d="m33.133 255c0-136.53 98.987-247.47 221.87-247.47-136.53 0-247.47 110.93-247.47 247.47s110.93 247.47 247.47 247.47c-122.88 0-221.87-110.93-221.87-247.47" fill="#fff"/>
	<path d="m255 511c-140.8 0-256-115.2-256-256s115.2-256 256-256 256 115.2 256 256-115.2 256-256 256zm0-494.93c-131.41 0-238.93 107.52-238.93 238.93s107.52 238.93 238.93 238.93 238.93-107.52 238.93-238.93-107.52-238.93-238.93-238.93z" fill="#B6B6B6"/>
	<polygon points="383 255 195.27 383 195.27 257.56 195.27 127" fill="#E0E0E0"/>
	<path d="m361.67 247.32c-14.507-23.04-58.027-43.52-81.92-59.733-20.48-13.653-40.96-23.893-59.733-39.253v220.16c5.12-3.413 11.093-5.973 16.213-9.387-1.707-4.267 0-9.387 3.413-11.093s6.827-2.56 11.093-3.413h4.267c17.067-15.36 33.28-31.573 53.76-42.667 0.853 0 0.853 0 1.707-0.853l1.707-1.707c11.093-6.827 23.04-12.8 34.987-18.773-1.707-3.413-0.853-8.533 3.413-11.093 5.12-3.413 11.093-5.973 17.067-6.827h2.56c3.412-7.681-1e-3 -12.801-8.534-15.361" fill="#F0F0F0"/>
	<path d="m195.27 391.53c-1.707 0-2.56 0-4.267-0.853-2.56-1.707-4.267-4.267-4.267-7.68v-256c0-3.413 1.707-5.973 4.267-7.68s5.973-0.853 8.533 0.853l187.73 128c2.56 1.707 3.413 4.267 3.413 6.827s-1.707 5.12-3.413 6.827l-187.73 128c-0.853 0.853-2.56 1.706-4.266 1.706zm8.533-248.32v223.57l163.84-111.79-163.84-111.79z" fill="#B6B6B6"/>
</g>

</svg>
